Small Soldiers 1998 DVDRip Xvid fasamoo LKRG


RIPPER                           : fasamoo
Format                           : AVI
Format/Info                      : Audio Video Interleave
File size                        : 700 MiB
Duration                         : 1h 49mn
Overall bit rate                 : 891 Kbps
Writing application              : VirtualDubMod 1.5.4.1 (build 2178/release)
Writing library                  : VirtualDubMod build 2178/release
Language                         : English
Subtitles                        : English(*.srt)
                                 : English,French,Spanish(*.idx,*.sub)
Genre                            : Action | Adventure | Comedy | Family | Sci-Fi 

Video
ID                               : 0
Format                           : MPEG-4 Visual
Format profile                   : Advanced Simple@L5
Format settings, BVOP            : Yes
Format settings, QPel            : No
Format settings, GMC             : No warppoints
Format settings, Matrix          : Custom
Codec ID                         : XVID
Codec ID/Hint                    : XviD
Duration                         : 1h 49mn
Bit rate                         : 763 Kbps
Width                            : 544 pixels
Height                           : 224 pixels
Display aspect ratio             : 2.40:1
Frame rate                       : 23.976 fps
Color space                      : YUV
Chroma subsampling               : 4:2:0
Bit depth                        : 8 bits
Scan type                        : Progressive
Bits/(Pixel*Frame)               : 0.261
Stream size                      : 600 MiB (86%)
Writing library                  : XviD 1.2.1 (UTC 2008-12-04)

Audio
ID                               : 1
Format                           : MPEG Audio
Format version                   : Version 1
Format profile                   : Layer 3
Mode                             : Joint stereo
Mode extension                   : MS Stereo
Codec ID                         : 55
Codec ID/Hint                    : MP3
Duration                         : 1h 49mn
Bit rate mode                    : Variable
Bit rate                         : 115 Kbps
Nominal bit rate                 : 128 Kbps
Channel(s)                       : 2 channels
Sampling rate                    : 48.0 KHz
Stream size                      : 90.5 MiB (13%)
Alignment                        : Aligned on interleaves
Interleave, duration             : 24 ms (0.58 video frame)
Interleave, preload duration     : 160 ms
Writing library                  : LAME3.98r
Encoding settings                : -m j -V 4 -q 2 -lowpass 17 --abr 128

 PLOT

Alan, son of a toy store owner, tries out some new action figures: The Commando Elite vs. The Gorgonites. What he does not know, is that both sets of toys were designed to move, talk and play back. The Commando Elite's purpose is to destroy the Gorgonites. Unfortunately, the toy designer who was responsible for the programming, bought highly intelligent military computer chips that are usually used for steering missiles - and are able to learn. Now, the Commando Elite, led by Major Chip Hazard, is up to destroying the Gorgonites, led by peaceful Archer, who hide in Alan's parents' house. Now, a battle, in which the destructive ability of creative computer chips against creative computer chips with a different attitude comes to light, is about to begin.


                                 IMBD
                     
                 http://www.imdb.com/title/tt0122718/
 
http://leetleech.org/images/03959644929736590978.png 
http://leetleech.org/images/56366657451949514553.png 
http://leetleech.org/images/53446893144321094022.png 
http://leetleech.org/images/55801521340818195527.png
